<svg viewBox="0 0 520 80" fill="none" xmlns="http://www.w3.org/2000/svg">
  <style>
    text { font-family: Inter, system-ui, sans-serif; }
  </style>

  <defs>
    <marker id="a" markerWidth="8" markerHeight="6" refX="7" refY="3" orient="auto">
      <polygon points="0 0, 8 3, 0 6" fill="#93BEF7"/>
    </marker>
  </defs>

  <!-- Step 1: Analyse -->
  <circle cx="40" cy="30" r="26" fill="#3B7DD8"/>
  <path d="M30 30 L36 30 M40 20 L40 26 M50 30 L44 30 M40 40 L40 34" stroke="white" stroke-width="2" stroke-linecap="round"/>
  <circle cx="40" cy="30" r="9" stroke="white" stroke-width="2" fill="none"/>
  <text x="40" y="74" text-anchor="middle" fill="#3B7DD8" font-size="13" font-weight="700">Analyse</text>

  <!-- Arrow -->
  <line x1="76" y1="30" x2="108" y2="30" stroke="#93BEF7" stroke-width="2.5" marker-end="url(#a)"/>

  <!-- Step 2: Workshop -->
  <circle cx="170" cy="30" r="26" fill="#4A8CE8"/>
  <path d="M157 24 L170 18 L183 24 L183 36 L157 36 Z" stroke="white" stroke-width="2" fill="none" stroke-linejoin="round"/>
  <line x1="164" y1="30" x2="176" y2="30" stroke="white" stroke-width="2" stroke-linecap="round"/>
  <text x="170" y="74" text-anchor="middle" fill="#4A8CE8" font-size="13" font-weight="700">Workshop</text>

  <!-- Arrow -->
  <line x1="206" y1="30" x2="238" y2="30" stroke="#93BEF7" stroke-width="2.5" marker-end="url(#a)"/>

  <!-- Step 3: Umsetzung -->
  <circle cx="300" cy="30" r="26" fill="#5A9AEE"/>
  <path d="M290 34 L296 40 L310 24" stroke="white" stroke-width="2.5" fill="none" stroke-linecap="round" stroke-linejoin="round"/>
  <text x="300" y="74" text-anchor="middle" fill="#5A9AEE" font-size="13" font-weight="700">Umsetzung</text>

  <!-- Arrow -->
  <line x1="336" y1="30" x2="368" y2="30" stroke="#93BEF7" stroke-width="2.5" marker-end="url(#a)"/>

  <!-- Step 4: Feedback -->
  <circle cx="430" cy="30" r="26" fill="#7BB3F5"/>
  <path d="M422 24 Q422 36 430 36 Q438 36 438 24" stroke="white" stroke-width="2" fill="none" stroke-linecap="round"/>
  <path d="M422 30 Q422 20 430 20 Q438 20 438 30" stroke="white" stroke-width="2" fill="none" stroke-linecap="round"/>
  <text x="430" y="74" text-anchor="middle" fill="#7BB3F5" font-size="13" font-weight="700">Feedback</text>
</svg>
